<svg viewBox="0 0 64 64" xmlns="http://www.w3.org/2000/svg">
  <defs>
    <linearGradient id="bg" x1="0" y1="0" x2="64" y2="64" gradientUnits="userSpaceOnUse">
      <stop offset="0" stop-color="#11141c"/>
      <stop offset="1" stop-color="#06070a"/>
    </linearGradient>
    <linearGradient id="stroke" x1="0" y1="0" x2="64" y2="64" gradientUnits="userSpaceOnUse">
      <stop offset="0" stop-color="#38bdf8"/>
      <stop offset="1" stop-color="#a78bfa"/>
    </linearGradient>
    <linearGradient id="glyph" x1="14" y1="10" x2="46" y2="48" gradientUnits="userSpaceOnUse">
      <stop offset="0" stop-color="#5fd4fb"/>
      <stop offset="1" stop-color="#a78bfa"/>
    </linearGradient>
    <radialGradient id="glow" cx="0.28" cy="0.22" r="0.65">
      <stop offset="0" stop-color="#38bdf8" stop-opacity="0.4"/>
      <stop offset="1" stop-color="#38bdf8" stop-opacity="0"/>
    </radialGradient>
  </defs>

  <rect x="1" y="1" width="62" height="62" rx="16" fill="url(#bg)"/>
  <rect x="1" y="1" width="62" height="62" rx="16" fill="url(#glow)"/>
  <rect x="2" y="2" width="60" height="60" rx="15" fill="none" stroke="url(#stroke)" stroke-opacity="0.55" stroke-width="1.6"/>

  <!-- Monogram R built from geometric strokes -->
  <path d="M20 47 L20 15 L34 15 C40 15 43.5 18.2 43.5 23.5 C43.5 28 41 31 36.5 32.2 L45 47 L37 47 L29.5 33.5 L27 33.5 L27 47 Z
           M27 21 L27 27.5 L33 27.5 C36 27.5 37 26 37 23.7 C37 21.4 36 21 33 21 Z"
        fill="url(#glyph)" fill-rule="evenodd"/>

  <!-- network-node accent, extending from the R's leg -->
  <line x1="37" y1="33" x2="47" y2="41" stroke="#38bdf8" stroke-width="1.4" stroke-opacity="0.65"/>
  <circle cx="47" cy="41" r="3" fill="#38bdf8"/>
  <circle cx="47" cy="41" r="5.2" fill="none" stroke="#38bdf8" stroke-opacity="0.35" stroke-width="1"/>
  <circle cx="18" cy="16" r="2" fill="#a78bfa"/>
</svg>
